<svg width="400" height="500" viewBox="0 0 400 500" xmlns="http://www.w3.org/2000/svg">
  <rect width="100%" height="100%" fill="white"/>
  <!-- Cabeza -->
  <circle cx="200" cy="120" r="40" fill="none" stroke="black" stroke-width="5"/>
  <circle cx="185" cy="115" r="5" fill="blue"/>
  <circle cx="215" cy="115" r="5" fill="blue"/>
  <path d="M 180 140 Q 200 160 220 140" fill="none" stroke="red" stroke-width="3"/>
  <!-- Pelo loco -->
  <path d="M 160 100 L 140 60 M 180 85 L 180 40 M 220 85 L 230 40 M 240 100 L 260 60" stroke="yellow" stroke-width="8"/>
  <!-- Cuerpo (Vestido) -->
  <path d="M 160 160 L 240 160 L 280 350 L 120 350 Z" fill="purple" stroke="black" stroke-width="5"/>
  <!-- Brazos posando -->
  <path d="M 160 180 L 100 140 L 80 160" fill="none" stroke="black" stroke-width="5"/>
  <path d="M 240 180 L 300 140 L 320 160" fill="none" stroke="black" stroke-width="5"/>
  <!-- Piernas -->
  <path d="M 170 350 L 170 450" stroke="black" stroke-width="5"/>
  <path d="M 230 350 L 230 450" stroke="black" stroke-width="5"/>
  <!-- Sol y nubes estilo niño -->
  <circle cx="50" cy="50" r="30" fill="yellow"/>
  <path d="M 50 10 L 50 25 M 90 50 L 75 50 M 50 90 L 50 75 M 10 50 L 25 50" stroke="orange" stroke-width="3"/>
  <text x="50" y="480" font-family="Comic Sans MS" font-size="24" fill="black">Soy una modelo!</text>
</svg>
