<svg width="300" height="400" viewBox="0 0 300 400" xmlns="http://www.w3.org/2000/svg">
  <rect width="100%" height="100%" fill="white"/>
  <!-- Cabeza feliz -->
  <circle cx="150" cy="100" r="40" fill="none" stroke="black" stroke-width="5"/>
  <circle cx="135" cy="90" r="5" fill="black"/>
  <circle cx="165" cy="90" r="5" fill="black"/>
  <path d="M 130 115 Q 150 135 170 115" fill="none" stroke="red" stroke-width="4"/>
  
  <!-- Pelo con colores TikTok -->
  <path d="M 110 80 L 80 150 M 150 60 L 150 30 M 190 80 L 220 150" stroke="#ff0050" stroke-width="8"/>
  
  <!-- Cuerpo bailando -->
  <path d="M 150 140 L 150 280 L 100 380 M 150 280 L 200 380" stroke="black" stroke-width="5" fill="none"/>
  <path d="M 150 180 L 80 220 L 60 180" stroke="#00f2ea" stroke-width="6" fill="none"/>
  <path d="M 150 180 L 220 220 L 240 180" stroke="#ff0050" stroke-width="6" fill="none"/>

  <!-- Logo TikTok -->
  <g transform="translate(230, 20) scale(0.5)">
    <path d="M37.5 0v37.5c-4.1-3.6-9.6-5.8-15.6-5.8-12.7 0-23 10.3-23 23s10.3 23 23 23 23-10.3 23-23v-54.7h-11.5v31.7h-11.5v-31.7z" fill="black"/>
  </g>
  
  <text x="50" y="390" font-family="Comic Sans MS" font-size="20" fill="black">Mira mi baile!!</text>
</svg>
